<svg width="32" height="32" viewBox="0 0 32 32" fill="none" xmlns="http://www.w3.org/2000/svg">
  <!-- Background circle with gradient -->
  <defs>
    <linearGradient id="grad1" x1="0%" y1="0%" x2="100%" y2="100%">
      <stop offset="0%" style="stop-color:#2563eb;stop-opacity:1" />
      <stop offset="100%" style="stop-color:#1d4ed8;stop-opacity:1" />
    </linearGradient>
  </defs>

  <!-- Main circle background -->
  <circle cx="16" cy="16" r="14" fill="url(#grad1)"/>

  <!-- Clock face -->
  <circle cx="16" cy="16" r="11" stroke="white" stroke-width="2" fill="none"/>

  <!-- Clock marks (12, 3, 6, 9) -->
  <line x1="16" y1="6" x2="16" y2="8" stroke="white" stroke-width="2" stroke-linecap="round"/>
  <line x1="16" y1="24" x2="16" y2="26" stroke="white" stroke-width="2" stroke-linecap="round"/>
  <line x1="26" y1="16" x2="24" y2="16" stroke="white" stroke-width="2" stroke-linecap="round"/>
  <line x1="6" y1="16" x2="8" y2="16" stroke="white" stroke-width="2" stroke-linecap="round"/>

  <!-- Clock hands pointing to 3:00 (cron time) -->
  <line x1="16" y1="16" x2="16" y2="10" stroke="white" stroke-width="2.5" stroke-linecap="round"/>
  <line x1="16" y1="16" x2="21" y2="16" stroke="white" stroke-width="2.5" stroke-linecap="round"/>

  <!-- Center dot -->
  <circle cx="16" cy="16" r="2" fill="white"/>

  <!-- Gear teeth for automation symbol -->
  <g opacity="0.9">
    <path d="M16 2 L17.5 4 L16 6 L14.5 4 Z" fill="white"/>
    <path d="M16 26 L17.5 28 L16 30 L14.5 28 Z" fill="white"/>
    <path d="M2 16 L4 17.5 L6 16 L4 14.5 Z" fill="white"/>
    <path d="M26 16 L28 17.5 L30 16 L28 14.5 Z" fill="white"/>
  </g>
</svg>
